<svg width="386" height="128" xmlns="http://www.w3.org/2000/svg">
  <path d="M46.567 105.188h26.031l13.516 17.015L83.79 128H50.16l.825-5.797-7.928-12.522 3.51-4.493zm18.627-74.751l13.95-.021 62.69 74.833L136.963 128h-26.868l1.672-6.41-58.58-69.944 12.007-21.209zM89.84 0l29.142 22.934-3.73 3.855 5.053 7.046v7.534l-14.53 11.859-24.433-28.904H67.118l5.728-10.512L89.84 0zM28.673 73.453l20.328-17.69 26.982 32.51-7.661 11.91H43.443l-17.211 22.615L22.3 128H0v-27.748l20.786-26.799h7.887zm215.312 21.882c-5.044 0-7.656-.817-9.817-3.086-3.242-3.266-4.503-7.804-4.503-21.87 0-14.156 1.26-18.603 4.503-21.96 2.071-2.178 4.773-2.995 9.817-2.995h16.84c5.044 0 7.656.817 9.817 2.995 3.242 3.357 4.503 7.804 4.503 21.96 0 14.157-1.26 18.604-4.503 21.87-2.161 2.269-4.773 3.086-9.816 3.086h-16.841zm-.631-10.99h18.102v-27.95h-18.102v27.95zM316.09 61.22h.004v-4.633h-16.93v4.633h.003v34.115h-13.779v-49.91h9.074v-.004h4.653V51.733l6.943-6.312h4.029a20.463 20.463 0 0 1 2.049-.087h6.034c4.233 0 6.935.907 8.826 2.813 2.071 1.996 2.882 4.628 2.882 11.978v35.21h-13.78V61.758c0-.186-.002-.366-.008-.538zM208.13 31.624h16.397l-23.554 30.033 24.55 33.866H208.13l-18.673-26.61-4.429-.02v26.63h-14.766V31.624h14.766v24.77h4.423l18.679-24.77zm164.004 13.797l13.867.003v51.99c0 8.62-.9 10.08-3.152 12.44-1.801 1.906-4.683 2.813-9.727 2.813l-20.32-.043-6.263-6.995-.02-2.942h25.615l-.025-7.117-17.471-.012c-5.314 0-7.993-.999-10.245-3.177-2.882-2.995-4.053-9.549-4.053-21.8 0-12.341 1.442-19.077 4.413-22.162 2.251-2.178 5.134-3.085 10.087-3.085l10.351.087 6.943 6.312V45.42zm-18.015 38.942h18.103V56.394h-18.103v27.969z" fill="#FFF" fill-rule="evenodd"/>
</svg>
